<?xml version="1.0" encoding="UTF-8"?>
<svg id="Layer_2" xmlns="http://www.w3.org/2000/svg" xmlns:xlink="http://www.w3.org/1999/xlink" viewBox="0 0 1000 800">
    <defs>
        <style>
            .cls-1 {
                fill: url(#linear-gradient-4);
            }

            .cls-1,
            .cls-2,
            .cls-3,
            .cls-4,
            .cls-5 {
                isolation: isolate;
                opacity: .15;
            }

            .cls-2 {
                fill: url(#linear-gradient-5);
            }

            .cls-3 {
                fill: url(#linear-gradient-2);
            }

            .cls-4 {
                fill: url(#linear-gradient-3);
            }

            .cls-5 {
                fill: url(#linear-gradient);
            }
        </style>
        <linearGradient id="linear-gradient" x1="-43.47" y1="2.65" x2="951.53" y2="795.65"
            gradientUnits="userSpaceOnUse">
            <stop offset="0" stop-color="#f1f1f1" />
            <stop offset=".5" stop-color="#d9d9d9" />
            <stop offset="1" stop-color="#ffffff" />
        </linearGradient>
        <linearGradient id="linear-gradient-2" x1="-141.44" y1="125.58" x2="853.56" y2="918.57"
            xlink:href="#linear-gradient" />
        <linearGradient id="linear-gradient-3" x1="-291.84" y1="314.28" x2="703.16" y2="1107.28"
            xlink:href="#linear-gradient" />
        <linearGradient id="linear-gradient-4" x1="6.49" y1="-60.04" x2="1001.49" y2="732.96"
            xlink:href="#linear-gradient" />
        <linearGradient id="linear-gradient-5" x1="119.48" y1="-201.81" x2="1114.48" y2="591.19"
            gradientTransform="translate(344.97 -393.96) rotate(45)" xlink:href="#linear-gradient" />
    </defs>
    <g id="Layer_2-2">
        <polygon class="cls-5" points="643.88 683.39 735.98 800 1000 800 1000 753.16 794.43 494.3 643.88 683.39" />
        <polygon class="cls-3" points="257.29 433.36 530.47 800 672.38 800 321.51 355.62 257.29 433.36" />
        <polygon class="cls-4" points="0 744.82 0 800 468.47 800 224.69 472.83 0 744.82" />
        <path class="cls-1"
            d="m0,0v666.56l302.73-366.46c10.02-12.24,28.78-12.09,38.67.28l270.94,343.07,162.75-204.68c10.01-12.47,28.68-12.48,38.68,0l186.23,234.45V0H0Zm648.03,363.08c-80.67,0-143.65-62.98-143.65-143.64s62.98-143.64,143.65-143.64,143.64,62.98,143.64,143.64-62.98,143.64-143.64,143.64Z" />
        <circle class="cls-2" cx="648.03" cy="219.44" r="93.92" transform="translate(34.64 522.5) rotate(-45)" />
    </g>
</svg>