<?xml version="1.0" standalone="no"?>
<!DOCTYPE svg PUBLIC "-//W3C//DTD SVG 20010904//EN"
 "http://www.w3.org/TR/2001/REC-SVG-20010904/DTD/svg10.dtd">
<svg version="1.0" xmlns="http://www.w3.org/2000/svg"
 width="512.000000pt" height="512.000000pt" viewBox="0 0 512.000000 512.000000"
 preserveAspectRatio="xMidYMid meet">
<metadata>
Created by potrace 1.14, written by Peter Selinger 2001-2017
</metadata>
<g transform="translate(0.000000,512.000000) scale(0.100000,-0.100000)"
fill="#000000" stroke="none">
<path d="M2379 5116 c-2 -2 -35 -6 -74 -9 -506 -44 -1060 -288 -1446 -637
-358 -324 -611 -718 -747 -1165 -42 -135 -58 -209 -89 -405 -18 -113 -24 -453
-11 -590 20 -207 85 -476 163 -676 120 -307 291 -578 520 -823 88 -93 168
-168 280 -260 278 -227 696 -422 1060 -496 224 -45 567 -65 755 -44 104 12
169 20 194 25 12 2 37 7 56 10 354 63 746 237 1051 466 418 314 721 731 892
1228 47 137 86 291 103 410 2 19 6 44 9 55 19 95 27 458 13 605 -21 205 -71
430 -136 605 -52 141 -72 187 -132 305 -212 414 -529 760 -930 1014 -246 155
-608 296 -875 341 -16 3 -39 7 -51 9 -12 2 -45 7 -74 11 -29 4 -62 9 -74 12
-24 5 -452 14 -457 9z m441 -200 c14 -2 47 -7 73 -11 26 -3 71 -10 100 -16 29
-6 63 -13 77 -15 73 -14 259 -69 315 -93 11 -5 61 -26 110 -46 422 -175 825
-521 1073 -920 200 -324 308 -643 351 -1040 9 -80 7 -428 -3 -475 -3 -14 -10
-59 -15 -100 -6 -41 -13 -84 -15 -95 -141 -679 -543 -1242 -1136 -1592 -174
-102 -439 -212 -605 -249 -94 -21 -289 -56 -355 -62 -84 -9 -436 -8 -475 1
-11 2 -47 8 -80 12 -62 7 -65 8 -155 26 -438 86 -875 324 -1197 651 -288 291
-470 598 -594 998 -17 52 -32 111 -35 130 -3 19 -8 38 -10 41 -1 3 -8 34 -14
70 -5 35 -12 75 -15 89 -12 69 -16 120 -19 295 -4 198 7 348 34 470 5 22 12
56 15 75 10 58 53 210 84 295 246 681 786 1213 1471 1448 102 35 267 78 360
92 25 4 54 9 65 11 11 2 54 7 95 10 41 4 77 8 79 10 5 5 392 -4 421 -10z"/>
<path d="M2419 4716 c-2 -2 -35 -6 -74 -10 -379 -33 -765 -184 -1081 -422
-101 -76 -144 -115 -239 -210 -106 -108 -128 -134 -214 -253 -231 -321 -361
-665 -400 -1061 -9 -83 -7 -394 2 -425 3 -11 8 -46 12 -79 16 -151 77 -370
151 -544 203 -474 579 -868 1042 -1091 l82 -40 1 42 c0 23 2 53 4 67 3 26 16
291 20 418 3 91 -10 162 -40 228 -26 58 -50 84 -154 164 -52 41 -78 69 -97
107 l-26 53 2 437 c2 526 4 600 25 763 1 8 5 40 9 71 8 65 6 56 40 219 58 274
167 612 266 826 16 36 30 67 30 69 0 2 15 30 34 63 36 60 103 136 146 163 27
18 63 11 72 -13 3 -8 7 -268 8 -578 6 -1841 9 -2455 14 -2578 4 -75 9 -186 11
-247 3 -60 8 -173 10 -250 3 -76 9 -142 13 -146 6 -7 30 -12 117 -25 17 -3 36
-7 43 -9 66 -23 556 -25 577 -3 2 2 6 64 9 138 3 74 8 173 11 220 3 47 7 128
10 180 9 184 16 316 20 380 5 81 18 360 19 419 l1 44 -65 21 c-98 32 -176 82
-267 172 -108 108 -116 133 -117 374 -1 153 7 346 19 490 2 25 7 77 10 115 3
39 7 84 9 100 3 17 7 66 11 110 4 44 9 87 10 95 1 8 6 49 10 90 4 41 9 82 10
90 2 8 6 49 10 90 4 41 8 82 10 90 2 8 6 44 10 80 10 101 7 97 80 97 63 0 65
0 65 -26 0 -14 2 -341 3 -726 l2 -700 55 0 c30 -1 60 1 65 2 7 2 10 247 9 716
0 391 2 717 4 724 2 7 29 12 73 12 l69 0 2 -727 3 -727 63 0 c60 -1 62 0 63
24 1 14 2 341 3 726 l1 700 75 0 75 0 1 -710 c1 -390 2 -717 3 -726 1 -12 14
-15 64 -14 l62 0 2 690 c1 380 2 706 2 726 l1 37 50 -1 c55 0 52 5 66 -112 4
-33 8 -71 10 -85 1 -14 6 -52 9 -85 3 -33 8 -71 10 -85 2 -14 7 -59 11 -100 3
-41 8 -82 9 -91 2 -9 6 -54 10 -100 4 -46 8 -86 10 -89 1 -3 6 -48 10 -100 3
-52 8 -111 10 -130 17 -168 24 -539 12 -640 -9 -78 -27 -116 -91 -186 -78 -87
-173 -149 -286 -190 l-65 -23 1 -78 c1 -69 8 -229 19 -423 2 -36 6 -117 10
-180 3 -63 8 -151 10 -195 2 -44 7 -136 11 -205 7 -128 11 -204 13 -207 2 -3
200 76 256 103 383 182 723 500 942 879 122 209 236 545 258 756 3 30 8 65 11
79 17 75 10 434 -11 555 -40 235 -95 411 -195 620 -141 293 -386 590 -640 775
-41 30 -77 57 -80 61 -13 15 -224 136 -300 172 -141 65 -369 142 -480 161 -19
3 -46 8 -60 11 -14 3 -45 8 -70 11 -25 3 -53 8 -63 10 -20 6 -383 15 -388 10z"/>
</g>
</svg>
